# xmcd
#
# Track frame offsets:
#	150
#	17875
#	37920
#	62078
#	76478
#	95768
#	113968
#	137988
#	160880
#	185725
#
# Disc length: 2762 seconds
#
# Revision: 2
# Processed by: cddbd v1.5.2PL0 Copyright (c) Steve Scherf et al.
# Submitted via: EZCDAudioConverter 8.0.2.1
#
DISCID=890ac80a
DTITLE=Various Artist - Sơn Ca, Hương Lan. Dân Ca 3 Miền. Hòn Vọng Phu
DYEAR=1993
DGENRE=World Pop
TTITLE0=Tuấn Vũ, Hương Lan - Lý ngựa ô
TTITLE1=Thiên Trang - Lý chim quyên
TTITLE2=Elvis Phương, Khánh Ly - Qua cầu gió bay
TTITLE3=Sơn Ca, Huy Sinh - Hòn Vọng Phu 1
TTITLE4=Hương Lan - Hòn Vọng Phu 2
TTITLE5=Sơn Ca, Huy Sinh - Hòn Vọng Phu 3
TTITLE6=Sơn Ca - Cô Thắm về làng
TTITLE7=Chế Linh - Tình chàng ý thiếp
TTITLE8=Sơn Ca, Duy Khánh - Đường về hai thôn
TTITLE9=Sơn Tuyền, Khánh Dũng - Lý qua đèo
EXTD=
EXTT0=
EXTT1=
EXTT2=
EXTT3=
EXTT4=
EXTT5=
EXTT6=
EXTT7=
EXTT8=
EXTT9=
PLAYORDER=
